<svg width="42" height="17" viewBox="0 0 42 17" fill="none" xmlns="http://www.w3.org/2000/svg">
<g clip-path="url(#clip0_24_45)">
<path d="M7.8248 2.56279C7.34433 3.10317 6.57542 3.52953 5.80659 3.46857C5.71049 2.73792 6.08686 1.96145 6.52737 1.48189C7.00784 0.926288 7.84882 0.530444 8.52956 0.5C8.60964 1.26117 8.29726 2.00712 7.8248 2.56279ZM8.52156 3.61325C7.40831 3.55236 6.4553 4.21451 5.92671 4.21451C5.39018 4.21451 4.58123 3.64369 3.70029 3.65892C2.5551 3.67414 1.4899 4.29062 0.905247 5.27259C-0.296085 7.23643 0.592942 10.1442 1.75415 11.7426C2.32279 12.5342 3.00353 13.402 3.90049 13.3715C4.74948 13.3411 5.08581 12.8464 6.11097 12.8464C7.14405 12.8464 7.44042 13.3715 8.33738 13.3563C9.26636 13.3411 9.85101 12.5648 10.4196 11.7731C11.0683 10.8749 11.3326 9.99951 11.3486 9.95384C11.3326 9.93862 9.55473 9.29169 9.53871 7.34299C9.52269 5.7141 10.9402 4.9377 11.0043 4.89204C10.2034 3.76547 8.95406 3.64369 8.52156 3.61325ZM14.9526 1.40578V13.2727H16.8907V9.21558H19.5736C22.0243 9.21558 23.7462 7.61713 23.7462 5.30311C23.7462 2.98915 22.0563 1.40585 19.6377 1.40585L14.9526 1.40578ZM16.8907 2.95863H19.1251C20.807 2.95863 21.768 3.81113 21.768 5.31064C21.768 6.81015 20.807 7.67033 19.1171 7.67033H16.8907V2.95863ZM27.286 13.3639C28.5034 13.3639 29.6326 12.7779 30.1451 11.8492H30.1852V13.2726H31.9792V7.36582C31.9792 5.65321 30.5376 4.54947 28.3191 4.54947C26.2609 4.54947 24.7392 5.66843 24.6832 7.20599H26.4291C26.5732 6.47526 27.2859 5.9957 28.2631 5.9957C29.4484 5.9957 30.1131 6.52093 30.1131 7.48767V8.14221L27.6944 8.27921C25.444 8.40859 24.2267 9.284 24.2267 10.8064C24.2267 12.344 25.484 13.3639 27.286 13.3639ZM27.8065 11.9557C26.7735 11.9557 26.1167 11.4839 26.1167 10.7607C26.1167 10.0148 26.7494 9.5809 27.9588 9.51241L30.1131 9.38302V10.0528C30.1131 11.1641 29.1201 11.9557 27.8066 11.9557H27.8065ZM34.3737 16.5C36.2638 16.5 37.1528 15.815 37.9296 13.7369L41.3333 4.66363H39.3632L37.0807 11.6741H37.0407L34.7582 4.66363H32.732L36.0155 13.303L35.8393 13.8283C35.543 14.7188 35.0625 15.0614 34.2056 15.0614C34.0534 15.0614 33.7571 15.0462 33.6369 15.0309V16.4543C33.7491 16.4848 34.2295 16.5 34.3737 16.5Z" fill="black"/>
</g>
<defs>
<clipPath id="clip0_24_45">
<rect width="41" height="16" fill="white" transform="translate(0.333313 0.5)"/>
</clipPath>
</defs>
</svg>
