<svg width="23" height="20" viewBox="0 0 23 20" fill="none" xmlns="http://www.w3.org/2000/svg">
<path d="M17.1025 13.2089L19.9152 2.2263H22.9923V0.5H18.5707L17.9076 3.08894L0.00772095 3.07617L1.91075 13.2088H17.1025V13.2089ZM17.4656 4.81494L15.758 11.4825H3.34772L2.0934 4.80397L17.4656 4.81494Z" fill="white"/>
<path d="M14.7328 19.5C16.2593 19.5 17.5011 18.2615 17.5011 16.7393C17.5011 15.2171 16.2593 13.9787 14.7328 13.9787H4.30283C2.77638 13.9787 1.53448 15.2171 1.53448 16.7393C1.53448 18.2615 2.77635 19.5 4.30283 19.5C5.82932 19.5 7.07116 18.2615 7.07116 16.7393C7.07116 16.3737 6.99934 16.0246 6.86936 15.705H12.1663C12.0363 16.0246 11.9644 16.3737 11.9644 16.7393C11.9645 18.2615 13.2063 19.5 14.7328 19.5ZM5.34005 16.7393C5.34005 17.3097 4.87476 17.7737 4.30283 17.7737C3.73091 17.7737 3.26559 17.3097 3.26559 16.7393C3.26559 16.169 3.73088 15.705 4.30283 15.705C4.87476 15.705 5.34005 16.169 5.34005 16.7393ZM15.77 16.7393C15.77 17.3097 15.3048 17.7737 14.7328 17.7737C14.1609 17.7737 13.6956 17.3097 13.6956 16.7393C13.6956 16.169 14.1609 15.705 14.7328 15.705C15.3048 15.705 15.77 16.169 15.77 16.7393Z" fill="white"/>
</svg>
