<svg width="43" height="17" viewBox="0 0 43 17" fill="none" xmlns="http://www.w3.org/2000/svg">
<g clip-path="url(#clip0_24_47)">
<path d="M20.3065 8.29071V12.9574H18.6948V1.4162H22.8865C23.9069 1.4162 24.8736 1.76679 25.6269 2.41934C26.3794 3.02091 26.7556 3.92443 26.7556 4.87816C26.7556 5.83188 26.3802 6.68443 25.6269 7.33698C24.8744 7.98953 23.9615 8.34012 22.8865 8.34012L20.3065 8.29071ZM20.3065 2.8209V6.83581H22.994C23.5852 6.83581 24.1765 6.63424 24.5527 6.23424C25.4127 5.48208 25.4127 4.22718 24.6056 3.47424L24.5527 3.42326C24.1227 3.02169 23.5852 2.77071 22.994 2.82169H20.3065V2.8209Z" fill="#5F6368"/>
<path d="M30.4627 4.82874C31.6452 4.82874 32.5581 5.12913 33.2568 5.73226C33.9556 6.33383 34.2773 7.13697 34.2773 8.14089V12.9589H32.7731V11.8546H32.7202C32.076 12.7581 31.1614 13.2099 30.0873 13.2099C29.1744 13.2099 28.3673 12.9589 27.7231 12.4578C27.1319 11.9558 26.7556 11.253 26.7556 10.5009C26.7556 9.69776 27.0781 9.04677 27.7231 8.54403C28.3673 8.04207 29.2802 7.84128 30.356 7.84128C31.3235 7.84128 32.076 7.99187 32.6664 8.34325V7.99266C32.6664 7.4907 32.4523 6.98952 32.0223 6.68756C31.5923 6.33697 31.0548 6.1354 30.4635 6.1354C29.5506 6.1354 28.8519 6.48599 28.3681 7.18952L26.9706 6.38638C27.8298 5.32991 28.9585 4.82874 30.4627 4.82874ZM28.421 10.5487C28.421 10.9503 28.6352 11.3009 28.9585 11.5017C29.3339 11.7527 29.7639 11.9032 30.1939 11.9032C30.8381 11.9032 31.4839 11.6523 31.9668 11.2013C32.5043 10.7487 32.7723 10.1981 32.7723 9.59501C32.2893 9.24442 31.5898 9.04285 30.6768 9.04285C30.0327 9.04285 29.4943 9.19344 29.0652 9.49383C28.6352 9.7456 28.421 10.097 28.421 10.5487Z" fill="#5F6368"/>
<path d="M42.9823 5.07977L37.6635 16.4696H36.0502L38.0389 12.5057L34.546 5.12918H36.266L38.7906 10.799H38.8443L41.316 5.12918H42.9823V5.07977Z" fill="#5F6368"/>
<path d="M13.9136 7.28761C13.9136 6.83506 13.859 6.38408 13.8061 5.93231H7.08984V8.49153H10.9044C10.7432 9.29466 10.2603 10.0468 9.50691 10.4986V12.1543H11.8173C13.1602 11.0005 13.9136 9.29388 13.9136 7.28761Z" fill="#4285F4"/>
<path d="M7.08815 13.7597C9.02231 13.7597 10.634 13.1582 11.8173 12.1535L9.5069 10.4978C8.86274 10.8993 8.05565 11.1503 7.08983 11.1503C5.26233 11.1503 3.65067 9.99659 3.11401 8.39032H0.748169V10.097C1.98358 12.355 4.40233 13.7597 7.08815 13.7597Z" fill="#34A853"/>
<path d="M3.11234 8.39113C2.78984 7.58799 2.78984 6.68446 3.11234 5.83191V4.12524H0.748176C-0.273074 5.9825 -0.273074 8.19034 0.748176 10.097L3.11234 8.39113Z" fill="#FBBC04"/>
<path d="M7.08817 3.12209C8.10942 3.12209 9.07692 3.47268 9.82858 4.12523L11.8711 2.21856C10.5811 1.11503 8.86192 0.462485 7.14192 0.511897C4.45442 0.511897 1.98444 1.9166 0.801941 4.17543L3.1661 5.88052C3.64985 4.2766 5.26151 3.12209 7.08817 3.12209Z" fill="#EA4335"/>
</g>
<defs>
<clipPath id="clip0_24_47">
<rect width="43" height="16" fill="white" transform="translate(0 0.5)"/>
</clipPath>
</defs>
</svg>
