<svg width="29" height="21" viewBox="0 0 29 21" fill="none" xmlns="http://www.w3.org/2000/svg">
<g clip-path="url(#clip0_24_39)">
<path d="M6.00966 20.7763V19.4062C6.00966 18.8812 5.67224 18.5387 5.09693 18.5387C4.80544 18.5387 4.49864 18.6333 4.27607 18.9249C4.10708 18.677 3.86974 18.5387 3.50935 18.5387C3.27146 18.5387 3.02646 18.6042 2.8345 18.8594V18.5824H2.33575V20.7763H2.84216V19.5663C2.84216 19.1801 3.05708 18.9977 3.3945 18.9977C3.73193 18.9977 3.90091 19.2019 3.90091 19.5663V20.7763H4.40732V19.5663C4.40732 19.1801 4.64521 18.9977 4.95966 18.9977C5.29708 18.9977 5.46607 19.2019 5.46607 19.5663V20.7763H6.00966ZM13.4871 18.5824H12.6662V17.9191H12.1598V18.5824H11.6999V19.0195H12.1598V20.0252C12.1598 20.5284 12.3747 20.8272 12.9495 20.8272C13.1644 20.8272 13.4094 20.7617 13.5708 20.6666L13.4253 20.2586C13.2798 20.3532 13.1108 20.375 12.996 20.375C12.7581 20.375 12.6586 20.2368 12.6586 20.0107V19.0268H13.4794V18.5824H13.4871ZM17.7587 18.5387C17.4672 18.5387 17.2758 18.677 17.1604 18.8594V18.5824H16.654V20.7763H17.1604V19.5445C17.1604 19.1801 17.3294 18.9758 17.6433 18.9758C17.7429 18.9758 17.8583 18.9977 17.9578 19.0195L18.1033 18.5605C18.0043 18.5387 17.8583 18.5387 17.7587 18.5387ZM11.2936 18.7648C11.0557 18.6042 10.7183 18.5387 10.3579 18.5387C9.78255 18.5387 9.39919 18.8157 9.39919 19.2456C9.39919 19.6099 9.69068 19.8142 10.1889 19.887L10.4268 19.9088C10.6876 19.9525 10.8331 20.0252 10.8331 20.1349C10.8331 20.2955 10.6411 20.4119 10.3037 20.4119C9.9663 20.4119 9.70544 20.2955 9.53701 20.1858L9.29911 20.5502C9.55997 20.7326 9.92036 20.8272 10.2808 20.8272C10.9556 20.8272 11.339 20.5284 11.339 20.1204C11.339 19.7342 11.0245 19.5299 10.5493 19.4571L10.3114 19.4353C10.0965 19.4135 9.92802 19.3698 9.92802 19.231C9.92802 19.0704 10.097 18.9831 10.3573 18.9831C10.6488 18.9831 10.9326 19.0995 11.0781 19.1655L11.2936 18.7648ZM24.7068 18.5387C24.4153 18.5387 24.2239 18.677 24.1085 18.8594V18.5824H23.6021V20.7763H24.1085V19.5445C24.1085 19.1801 24.2775 18.9758 24.5914 18.9758C24.6909 18.9758 24.8063 18.9977 24.9058 19.0195L25.0513 18.5605C24.9447 18.5387 24.7986 18.5387 24.7068 18.5387ZM18.2646 19.676C18.2646 20.3392 18.7475 20.8205 19.4918 20.8205C19.8292 20.8205 20.0671 20.755 20.3126 20.5726L20.0747 20.1864C19.8828 20.3246 19.6914 20.3906 19.4765 20.3906C19.0701 20.3906 18.7786 20.1136 18.7786 19.6838C18.7786 19.2757 19.0701 18.9987 19.4765 18.9769C19.6914 18.9769 19.8828 19.0424 20.0747 19.1811L20.3126 18.7949C20.0747 18.6125 19.8297 18.547 19.4918 18.547C18.748 18.5387 18.2646 19.02 18.2646 19.676ZM22.9278 19.676V18.5824H22.4214V18.8594C22.2524 18.6551 22.0151 18.5387 21.7006 18.5387C21.0487 18.5387 20.55 19.02 20.55 19.6832C20.55 20.3465 21.0564 20.8278 21.7006 20.8278C22.038 20.8278 22.2759 20.7113 22.4214 20.5071V20.7841H22.9278V19.676ZM21.0793 19.676C21.0793 19.2898 21.3402 18.9691 21.7772 18.9691C22.1835 18.9691 22.475 19.2679 22.475 19.676C22.475 20.0621 22.1835 20.3828 21.7772 20.3828C21.3402 20.361 21.0793 20.0694 21.0793 19.676ZM15.0435 18.5387C14.3686 18.5387 13.8929 18.9977 13.8929 19.6832C13.8929 20.3683 14.3758 20.8278 15.0741 20.8278C15.4115 20.8278 15.749 20.7332 16.0098 20.5289L15.7719 20.1864C15.58 20.3246 15.3426 20.4125 15.0971 20.4125C14.7826 20.4125 14.4758 20.2742 14.3993 19.8875H16.1017V19.7051C16.1252 18.9904 15.6954 18.5387 15.0435 18.5387ZM15.0435 18.9467C15.3579 18.9467 15.5729 19.1292 15.6188 19.4717H14.4146C14.4687 19.1801 14.6831 18.9467 15.0435 18.9467ZM27.5675 19.676V17.7154H27.0611V18.8599C26.8921 18.6557 26.6547 18.5392 26.3403 18.5392C25.6884 18.5392 25.1897 19.0205 25.1897 19.6838C25.1897 20.347 25.6961 20.8283 26.3403 20.8283C26.6777 20.8283 26.9156 20.7118 27.0611 20.5076V20.7846H27.5675V19.676ZM25.7114 19.676C25.7114 19.2898 25.9722 18.9691 26.4092 18.9691C26.8155 18.9691 27.107 19.2679 27.107 19.676C27.107 20.0621 26.8155 20.3828 26.4092 20.3828C25.9799 20.361 25.7114 20.0694 25.7114 19.676ZM8.84685 19.676V18.5824H8.34044V18.8594C8.17146 18.6551 7.93411 18.5387 7.61966 18.5387C6.96779 18.5387 6.46904 19.02 6.46904 19.6832C6.46904 20.3465 6.97544 20.8278 7.61966 20.8278C7.95708 20.8278 8.19497 20.7113 8.34044 20.5071V20.7841H8.84685V19.676ZM6.97599 19.676C6.97599 19.2898 7.23685 18.9691 7.6738 18.9691C8.08013 18.9691 8.37161 19.2679 8.37161 19.676C8.37161 20.0621 8.08013 20.3828 7.6738 20.3828C7.2363 20.361 6.97599 20.0694 6.97599 19.676Z" fill="black"/>
<path d="M18.7016 1.93427H11.1323V14.8578H18.7016V1.93427Z" fill="#FF5F00"/>
<path d="M11.6081 8.39962C11.6081 5.77584 12.9042 3.44312 14.8981 1.93424C13.433 0.840652 11.5851 0.177429 9.56056 0.177429C4.78251 0.177429 0.909546 3.85114 0.909546 8.39962C0.909546 12.9408 4.77486 16.6218 9.56056 16.6218C11.5774 16.6218 13.4259 15.9586 14.8981 14.865C12.9042 13.378 11.6081 11.0239 11.6081 8.39962Z" fill="#EB001B"/>
<path d="M28.9095 8.39962C28.9095 12.9408 25.0442 16.6218 20.2585 16.6218C18.2416 16.6218 16.3932 15.9586 14.921 14.865C16.9379 13.3561 18.211 11.0312 18.211 8.39962C18.211 5.77584 16.9149 3.44312 14.921 1.93424C16.3861 0.840652 18.234 0.177429 20.2585 0.177429C25.0442 0.177949 28.9095 3.87349 28.9095 8.39962Z" fill="#F79E1B"/>
</g>
<defs>
<clipPath id="clip0_24_39">
<rect width="28" height="21" fill="white" transform="translate(0.666687)"/>
</clipPath>
</defs>
</svg>
