<svg width="33" height="21" viewBox="0 0 33 21" fill="none" xmlns="http://www.w3.org/2000/svg">
<g clip-path="url(#clip0_24_35)">
<path d="M32.2666 0.724121H0.733276V20.2758H32.2666V0.724121Z" fill="#0E4595"/>
<path d="M12.4046 14.6467L13.816 6.42474H16.0736L14.6611 14.6467H12.4046ZM22.8169 6.60198C22.3698 6.4354 21.6688 6.25665 20.7937 6.25665C18.563 6.25665 16.9917 7.37175 16.9784 8.96998C16.9658 10.1514 18.1002 10.8105 18.9564 11.2038C19.8351 11.6068 20.1305 11.8638 20.1263 12.2237C20.1208 12.7748 19.4246 13.0265 18.7758 13.0265C17.8722 13.0265 17.3922 12.9019 16.6508 12.595L16.3599 12.4643L16.0431 14.3049C16.5703 14.5344 17.5454 14.7332 18.5577 14.7435C20.9308 14.7435 22.4712 13.6412 22.4888 11.9345C22.4972 10.9992 21.8958 10.2874 20.5934 9.70057C19.8043 9.32026 19.3211 9.06641 19.3262 8.68131C19.3262 8.33956 19.7353 7.97407 20.619 7.97407C21.3573 7.96273 21.8921 8.12254 22.3087 8.28907L22.511 8.38399L22.8169 6.60198ZM28.6262 6.42461H26.8818C26.3414 6.42461 25.937 6.57106 25.6997 7.10644L22.347 14.6412H24.7176C24.7176 14.6412 25.1051 13.6281 25.1928 13.4057C25.4519 13.4057 27.7547 13.4092 28.084 13.4092C28.1515 13.697 28.3586 14.6412 28.3586 14.6412H30.4534L28.6262 6.42436V6.42461ZM25.8585 11.7338C26.0452 11.2601 26.758 9.43547 26.758 9.43547C26.7446 9.45739 26.9433 8.95944 27.0573 8.65074L27.2098 9.35965C27.2098 9.35965 27.6421 11.3223 27.7325 11.7338H25.8585ZM10.4881 6.42461L8.278 12.0316L8.04247 10.8922C7.63103 9.57868 6.3491 8.15564 4.91602 7.44319L6.93688 14.6336L9.32541 14.6309L12.8794 6.42453H10.4881" fill="white"/>
<path d="M6.21588 6.4243H2.57569L2.54688 6.59537C5.37887 7.27594 7.25276 8.92061 8.0308 10.8966L7.23922 7.11827C7.10257 6.59768 6.70627 6.44232 6.21597 6.42413" fill="#F2AE14"/>
</g>
<defs>
<clipPath id="clip0_24_35">
<rect width="33" height="21" fill="white"/>
</clipPath>
</defs>
</svg>
