<svg width="274" height="111" viewBox="0 0 274 111" fill="none" xmlns="http://www.w3.org/2000/svg">
<path d="M26.41 24.1093C32.225 28.6399 48.1356 25.4038 48.1356 14.8054C48.1356 5.58236 39.6553 0 26.0061 0C11.1455 0 0 9.30394 0 25.7274C0 42.2318 10.0148 51.4548 25.037 51.4548C38.4439 51.4548 46.6011 39.4811 46.6011 33.4133C46.6011 31.5525 44.3397 31.4716 43.0474 32.6042C32.3058 41.5036 16.7182 39.562 16.7182 23.0576C16.7182 13.1873 19.545 4.53062 25.5216 4.53062C33.921 4.53062 32.5481 21.9249 26.41 24.1093Z" fill="white"/>
<path d="M93.912 41.9891C92.862 41.9082 91.9736 40.6137 91.9736 38.2675V19.9832C91.9736 16.019 93.0235 13.7536 93.2658 12.621C93.3466 11.6501 92.9428 11.0838 91.8121 11.2456L77.8398 13.6727C76.3861 13.9964 76.4668 15.2099 76.9514 15.8571C77.436 16.4235 78.4052 18.1225 78.4052 20.4687V38.672C74.7708 41.2609 67.3405 42.1509 67.3405 34.5459V19.9832C67.3405 16.019 68.3904 13.7536 68.5519 12.621C68.7135 11.6501 68.3096 11.0838 67.0982 11.2456L53.1259 13.6727C51.7529 13.9964 51.8337 15.2099 52.3183 15.8571C52.7221 16.4235 53.7721 18.1225 53.7721 20.4687V38.1866C53.7721 45.387 58.4564 50.3222 64.9983 50.3222C71.3787 50.3222 77.0322 44.4971 78.4052 40.6946V43.3644C78.4052 47.5714 82.0396 50.3222 86.8047 50.3222C92.7005 50.3222 95.4465 46.1152 95.4465 43.6071C95.4465 42.4745 95.285 42.2318 93.912 41.9891Z" fill="white"/>
<path d="M134.712 19.4978C134.712 14.1582 128.412 10.4366 119.286 10.4366C107.09 10.4366 99.4178 15.8571 99.4178 22.6531C99.4178 33.8987 121.628 36.5685 121.628 42.879C121.628 45.4679 119.932 46.6006 117.751 46.6006C115.328 46.6006 112.259 41.9891 112.259 38.5911C112.259 37.2157 111.856 36.4876 109.917 36.4067C104.587 36.0831 98.6102 40.6946 99.4178 44.9016C100.306 49.7558 109.11 51.1312 117.024 51.1312C126.393 51.1312 134.712 45.9534 134.712 38.9147C134.712 27.9118 112.502 25.0802 112.502 18.6888C112.502 16.0999 114.117 14.9672 116.298 14.9672C119.286 14.9672 122.759 19.0933 121.79 23.7857C125.666 25.0802 134.712 25.9701 134.712 19.4978Z" fill="white"/>
<path d="M163.675 38.1057C160.04 39.8856 156.083 38.5911 156.083 33.3324V15.7762H164.24C165.29 15.7762 166.017 14.8054 166.017 13.5109C166.017 12.2165 165.29 11.2456 164.24 11.2456H156.083V2.75073C156.083 -0.647227 152.933 -0.88994 151.399 2.1844C148.733 7.68586 143.887 10.2748 140.253 11.2456C139.284 11.4883 138.476 12.2165 138.476 13.5109C138.476 14.8054 139.203 15.7762 140.253 15.7762H142.514V37.6203C142.514 45.7915 147.845 50.3222 155.598 50.3222C161.333 50.3222 166.178 45.7915 166.178 40.1283C166.178 37.863 164.644 37.6203 163.675 38.1057Z" fill="white"/>
<path d="M189.208 10.4366C178.143 10.4366 169.097 16.9898 169.097 30.7434C169.097 44.4971 178.143 51.1312 189.208 51.1312C200.353 51.1312 209.399 44.4971 209.399 30.7434C209.399 16.9898 200.353 10.4366 189.208 10.4366ZM189.208 46.6006C185.573 46.6006 184.281 39.4811 184.281 30.7434C184.281 22.0058 185.573 14.9672 189.208 14.9672C192.923 14.9672 194.215 22.0867 194.215 30.7434C194.215 39.4811 192.923 46.6006 189.208 46.6006Z" fill="white"/>
<path d="M273.771 48.5423C273.448 47.9759 272.802 46.277 272.802 43.769V23.3003C272.802 16.1808 268.118 11.2456 261.576 11.2456C255.195 11.2456 252.126 17.2325 250.672 21.1159C249.784 15.2099 245.504 11.2456 239.608 11.2456C233.227 11.2456 230.32 16.9898 228.866 20.8732V19.9832C228.866 16.019 229.916 13.7536 230.078 12.621C230.239 11.6501 229.835 11.0838 228.624 11.2456L214.652 13.6727C213.279 13.9964 213.359 15.2099 213.844 15.8571C214.248 16.4235 215.298 18.1225 215.298 20.4687V43.769C215.298 46.277 214.652 47.9759 214.248 48.5423C213.925 49.1895 214.005 50.3222 214.975 50.3222H229.189C230.158 50.3222 230.239 49.1895 229.916 48.5423C229.512 47.9759 228.866 46.277 228.866 43.769V22.8149C232.581 20.3069 237.266 19.4169 237.266 26.941V43.769C237.266 46.277 236.539 47.9759 236.216 48.5423C235.893 49.1895 235.893 50.3222 236.943 50.3222H251.157C252.126 50.3222 252.207 49.1895 251.803 48.5423C251.48 47.9759 250.834 46.277 250.834 43.769V22.8149C254.549 20.3069 259.234 19.4169 259.234 26.941V43.769C259.234 46.277 258.507 47.9759 258.184 48.5423C257.78 49.1895 257.861 50.3222 258.91 50.3222H273.125C274.094 50.3222 274.175 49.1895 273.771 48.5423Z" fill="white"/>
<path d="M25.7638 61.3251C21.1603 61.3251 13.3261 61.8105 7.59185 61.8105H0.888408C-0.0807644 61.8105 -0.161529 62.9431 0.242293 63.5904C0.565351 64.2376 2.09987 65.8557 2.09987 70.1436V102.667C2.09987 106.955 0.565351 108.654 0.242293 109.22C-0.161529 109.867 -0.0807644 111 0.888408 111H17.8489C18.8181 111 18.8989 109.867 18.495 109.22C18.172 108.654 16.6375 106.955 16.6375 102.667V94.7383C26.9753 91.5022 42.0783 87.8615 42.0783 74.4315C42.0783 66.9883 36.1017 61.3251 25.7638 61.3251ZM16.6375 90.2077V65.9366H18.495C23.987 65.9366 25.2793 72.6516 25.2793 77.1822C25.2793 81.6319 22.2102 87.8615 16.6375 90.2077Z" fill="white"/>
<path d="M62.2384 109.22C61.8346 108.654 61.1885 106.955 61.1885 104.447V80.6611C61.1885 76.6968 62.2384 74.4315 62.4 73.2988C62.5615 72.328 62.1577 71.7617 60.9462 71.9235L46.974 74.3506C45.601 74.6742 45.6817 75.8878 46.1663 76.535C46.5701 77.1013 47.6201 78.8003 47.6201 81.1465V104.447C47.6201 106.955 46.974 108.654 46.5701 109.22C46.2471 109.867 46.3278 111 47.297 111H61.5116C62.4807 111 62.5615 109.867 62.2384 109.22ZM54.162 71.2762C58.1194 71.2762 60.7847 69.7391 60.7847 65.9366C60.7847 62.215 58.1194 60.6778 54.162 60.6778C50.2045 60.6778 47.4585 62.215 47.4585 65.9366C47.4585 69.7391 50.2045 71.2762 54.162 71.2762Z" fill="white"/>
<path d="M93.269 93.2012C94.3189 98.2172 89.15 106.469 84.8695 106.469C82.3658 106.469 81.5582 103.638 83.7388 100.887L103.041 77.1013C104.738 74.6742 104.334 71.9235 101.103 71.9235H90.1999C85.5156 71.8426 72.5125 71.9235 72.5125 71.9235C68.0705 71.9235 67.5859 73.9461 67.1821 76.2114C67.1821 76.2114 66.1322 82.2792 66.1322 84.3017C66.1322 86.9716 68.7166 87.6188 70.4127 86.5671C72.8356 84.949 77.6007 76.4541 84.3041 76.4541H86.1617L70.0088 96.3564C64.4361 102.667 66.4552 111 77.1969 111H92.3806C108.857 111 108.291 90.2886 93.269 93.2012Z" fill="white"/>
<path d="M135.326 93.2012C136.376 98.2172 131.207 106.469 126.927 106.469C124.423 106.469 123.616 103.638 125.796 100.887L145.099 77.1013C146.795 74.6742 146.391 71.9235 143.161 71.9235H132.257C127.573 71.8426 114.57 71.9235 114.57 71.9235C110.128 71.9235 109.643 73.9461 109.24 76.2114C109.24 76.2114 108.19 82.2792 108.19 84.3017C108.19 86.9716 110.774 87.6188 112.47 86.5671C114.893 84.949 119.658 76.4541 126.362 76.4541H128.219L112.066 96.3564C106.494 102.667 108.513 111 119.254 111H134.438C150.914 111 150.349 90.2886 135.326 93.2012Z" fill="white"/>
<path d="M188.287 102.667C187.237 102.586 186.349 101.292 186.349 98.9453V85.5153C186.349 77.1013 179.403 71.9235 168.742 71.9235C157.274 71.9235 147.097 79.5284 151.135 85.8389C154.204 90.6122 165.592 87.6188 165.592 87.6188C165.592 87.6188 161.877 76.4541 167.773 76.4541C171.165 76.4541 172.78 82.7646 172.78 86.8098V90.5313C166.642 87.2143 150.247 91.3404 150.247 100.644C150.247 107.926 156.547 111 162.442 111C168.096 111 171.084 107.036 172.78 104.042C172.861 108.33 176.415 111 181.18 111C187.076 111 189.741 106.793 189.822 104.285C189.822 103.152 189.579 102.91 188.287 102.667ZM172.78 102.586C171.488 103.233 164.704 103.071 164.704 98.6217C164.704 93.4439 170.115 91.9067 172.78 91.9067V102.586Z" fill="white"/>
</svg>
