<svg width="100" height="20" viewBox="0 0 100 20" fill="none" xmlns="http://www.w3.org/2000/svg">
<path d="M89.1105 3.4984C90.3865 3.70584 91.6071 3.91329 92.8461 4.13016C92.8461 9.37285 92.8461 14.5967 92.8461 19.8582C91.7088 19.8582 90.5807 19.8677 89.4619 19.8394C89.3416 19.8394 89.1752 19.6225 89.1197 19.4622C88.2136 17.1426 87.3259 14.7475 86.4289 12.3054C86.318 12.0131 86.207 11.7113 85.9851 11.4284C86.0406 14.2195 86.1053 17.0106 86.1608 19.8488C84.9495 19.8488 83.8029 19.8488 82.6471 19.8299C82.5638 19.8299 82.4436 19.6696 82.3974 19.5565C82.3512 19.4622 82.3882 19.3208 82.3882 19.1982C82.4066 13.8518 82.4159 8.49592 82.4344 3.14951C82.4344 2.48003 82.4344 2.48003 83.0354 2.5649C83.8954 2.68748 84.7553 2.81949 85.6152 2.92321C85.9019 2.96093 86.0406 3.07408 86.1515 3.39467C87.067 6.08202 87.9916 8.7128 88.9255 11.2776C89.018 11.5227 89.129 11.7585 89.2954 11.9753C89.2492 9.17483 89.1845 6.3649 89.1105 3.4984Z" fill="#FF0000"/>
<path d="M51.1344 9.91974C51.1344 8.63735 51.1714 7.3644 51.1344 6.08201C50.9957 2.24429 53.1872 -0.0187417 55.9519 0.000116942C57.5793 0.00954624 59.0403 0.594162 60.1499 2.25372C60.8342 3.28151 61.1486 4.4696 61.1578 5.76142C61.167 8.65621 61.167 11.551 61.1393 14.4552C61.1023 17.3689 59.3732 19.6036 56.9321 19.9242C55.1937 20.1411 53.5848 19.7639 52.2995 18.0855C51.569 17.1331 51.1806 15.9639 51.1529 14.6344C51.1252 13.0597 51.1529 11.485 51.1529 9.91031C51.1437 9.91974 51.1344 9.91974 51.1344 9.91974ZM56.9506 10.014C56.9506 8.53363 56.9598 7.05323 56.9598 5.5634C56.9598 4.91278 56.6454 4.50732 56.1738 4.4696C55.7115 4.43189 55.3509 4.83735 55.3416 5.46911C55.3232 8.4582 55.3232 11.4567 55.3232 14.4458C55.3232 15.0681 55.6375 15.4642 56.0814 15.4925C56.5992 15.5302 56.9321 15.0964 56.9321 14.3326C56.9506 12.8994 56.9413 11.4567 56.9506 10.014Z" fill="#FF0000"/>
<path d="M27.426 19.8394C27.5185 19.2925 27.5925 18.8116 27.6757 18.3401C28.6743 12.9183 29.673 7.44927 30.6716 1.9237C30.9213 0.518738 30.9213 0.509309 32.0586 0.452733C33.1682 0.396157 34.2778 0.339581 35.4336 0.292435C36.5895 6.7515 37.7268 13.2294 38.8734 19.7922C37.4309 19.7922 36.0347 19.7922 34.5737 19.7922C34.509 19.2453 34.435 18.6796 34.3795 18.1138C34.3425 17.6989 34.2316 17.4915 33.8617 17.5198C33.3254 17.5669 32.7798 17.5669 32.2435 17.5292C31.9199 17.5103 31.8089 17.6612 31.7812 18.0384C31.7442 18.5381 31.6795 19.0379 31.5963 19.5282C31.5778 19.6508 31.4391 19.8299 31.3559 19.8299C30.0706 19.8488 28.7853 19.8394 27.426 19.8394ZM32.3083 13.7952C32.8538 13.7858 33.3346 13.7763 33.8802 13.7669C33.6398 11.6925 33.4086 9.66516 33.1774 7.63786C33.122 7.64729 33.0757 7.64729 33.0203 7.65671C32.7798 9.68401 32.5487 11.6925 32.3083 13.7952Z" fill="#FF0000"/>
<path d="M70.1364 19.8488C70.386 18.557 70.6079 17.3877 70.8391 16.2185C71.7268 11.6736 72.6145 7.19466 73.5021 2.77232C73.761 1.47108 73.761 1.46165 74.8891 1.58423C75.8785 1.68796 76.8587 1.81054 77.8481 1.91426C78.1347 1.94255 78.2734 2.03684 78.3381 2.41401C78.9114 5.61054 79.5125 8.77879 80.095 11.8999C80.5758 14.4458 81.0474 16.9728 81.5282 19.4716C81.5467 19.5753 81.5467 19.6696 81.5652 19.8205C80.1505 19.8205 78.7635 19.8205 77.2933 19.8111C77.2378 19.3302 77.1546 18.821 77.1176 18.3118C77.0898 17.8781 76.9696 17.6706 76.5535 17.6989C76.0357 17.7366 75.5087 17.7178 74.9816 17.68C74.6672 17.6518 74.547 17.7932 74.51 18.1515C74.473 18.623 74.4083 19.0944 74.3251 19.5565C74.3066 19.6696 74.1679 19.8393 74.0847 19.8488C72.7901 19.8488 71.5049 19.8488 70.1364 19.8488ZM75.9618 8.46762C75.9063 8.46762 75.8508 8.46762 75.8046 8.46762C75.5641 10.344 75.3145 12.2393 75.0648 14.1441C75.6196 14.1629 76.1005 14.1818 76.6275 14.2006C76.3963 12.2582 76.1837 10.3629 75.9618 8.46762Z" fill="#FF0000"/>
<path d="M20.1581 19.8488C19.9639 19.8488 19.8067 19.8488 19.6403 19.8488C18.5122 19.8488 17.3934 19.8394 16.2653 19.8582C15.9509 19.8677 15.8122 19.7356 15.8029 19.3773C15.8029 19.1793 15.7567 18.9907 15.729 18.7927C15.5718 17.7178 15.5718 17.7178 14.6564 17.7272C14.305 17.7366 13.9444 17.7744 13.593 17.7366C13.2324 17.6989 13.1029 17.8781 13.0752 18.2647C13.0289 18.7833 12.9457 19.3019 12.881 19.8299C11.4848 19.8299 10.1347 19.8299 8.72925 19.8394C8.92343 18.887 9.09911 17.9724 9.28405 17.0577C10.1902 12.6165 11.0871 8.08104 11.9841 3.45125C12.2152 2.27259 12.1967 2.26316 13.2139 2.14058C14.2403 2.00857 15.2759 1.89542 16.3023 1.76341C16.5982 1.72569 16.7184 1.81055 16.7923 2.16887C17.5321 6.00659 18.2811 9.89146 19.03 13.8329C19.3814 15.6999 19.742 17.5669 20.1026 19.4528C20.1304 19.5565 20.1396 19.6602 20.1581 19.8488ZM15.1742 14.2572C14.9338 12.3525 14.7026 10.4949 14.4622 8.64679C14.4067 8.65622 14.3605 8.66565 14.305 8.66565C14.0738 10.5515 13.8427 12.4185 13.6022 14.3232C14.1385 14.2949 14.6286 14.2761 15.1742 14.2572Z" fill="#FF0000"/>
<path d="M72.4018 1.33907C72.1336 2.60259 71.8839 3.81897 71.6343 5.03535C70.7466 9.30682 69.8589 13.6349 68.9712 18.0101C68.9435 18.1421 68.9158 18.2647 68.888 18.3872C68.7771 18.8493 68.7863 19.5282 68.5366 19.7356C68.2315 19.9808 67.7137 19.8488 67.2883 19.8488C66.5486 19.8582 65.8089 19.8393 65.0691 19.8582C64.7825 19.8676 64.6808 19.7451 64.6161 19.3962C63.5157 13.3708 62.4061 7.27952 61.2965 1.13162C61.2595 0.943038 61.2503 0.754452 61.2225 0.481003C61.8883 0.51872 62.5171 0.556437 63.1458 0.594154C63.7654 0.631872 64.3849 0.688447 64.9952 0.707306C65.2633 0.716735 65.402 0.79217 65.4575 1.17877C65.7349 3.41351 66.0493 5.63883 66.3452 7.86414C66.4469 8.6562 66.5394 9.44826 66.6503 10.2309C66.6688 10.3535 66.7335 10.4572 66.826 10.7306C67.0479 9.29739 67.2514 8.02444 67.4548 6.75148C67.7414 4.93163 68.0188 3.11178 68.324 1.31078C68.3425 1.17877 68.5089 0.999614 68.6106 1.00904C69.8497 1.09391 71.098 1.20706 72.4018 1.33907Z" fill="#FF0000"/>
<path d="M25.8911 5.17682C25.9004 7.66615 25.9096 10.08 25.9189 12.5034C25.9281 14.9267 25.9374 17.3406 25.9466 19.8017C24.5411 19.8017 23.1819 19.8017 21.7671 19.8017C21.7671 19.5753 21.7671 19.3773 21.7671 19.1793C21.7486 14.8513 21.7394 10.5138 21.7209 6.18575C21.7209 5.44084 21.7209 5.44084 21.0829 5.48798C20.3154 5.54456 19.5387 5.60113 18.7712 5.65771C18.7435 5.65771 18.7157 5.64828 18.6325 5.62942C18.6233 4.29046 18.6233 2.93264 18.614 1.52768C18.762 1.49939 18.9099 1.4711 19.0579 1.45224C22.2017 1.13165 25.3456 0.867629 28.4987 0.641325C28.8963 0.613038 29.0443 0.707331 29.035 1.23537C29.0073 2.29145 29.0165 3.34753 29.0443 4.39418C29.0535 4.88451 28.9148 5.01652 28.5357 5.02595C27.6665 5.05424 26.8066 5.12024 25.8911 5.17682Z" fill="#FF0000"/>
<path d="M3.15352 19.8676C3.15352 19.6319 3.15352 19.4528 3.15352 19.283C3.14427 15.549 3.14427 11.815 3.13503 8.08102C3.13503 7.15695 3.21825 7.28896 2.36755 7.39268C1.72029 7.46812 1.08227 7.54355 0.435001 7.64727C0.139108 7.70385 -0.00883849 7.63784 0.000408177 7.29839C0.0189015 6.37432 0.00965484 5.44082 0.000408177 4.51675C0.000408177 4.21501 0.0928748 4.09243 0.398015 4.04528C3.59736 3.48895 6.79671 2.99863 10.0053 2.54603C10.3382 2.49888 10.4214 2.63089 10.4122 2.97977C10.4029 3.98871 10.4029 4.98821 10.4214 5.98772C10.4306 6.35546 10.3197 6.47804 9.99605 6.50633C9.12687 6.57233 8.25768 6.68549 7.30527 6.78921C7.30527 7.01551 7.30527 7.21353 7.30527 7.40211C7.31452 11.353 7.31452 15.2944 7.34226 19.2453C7.34226 19.7262 7.24055 19.8865 6.78746 19.8676C5.60389 19.8394 4.42031 19.8676 3.15352 19.8676Z" fill="#FF0000"/>
<path d="M40.6858 13.1729C41.8508 13.1634 42.9974 13.1634 44.1348 13.154C44.3752 13.154 44.4584 13.2766 44.4584 13.5783C44.4584 14.0309 44.4676 14.4835 44.4769 14.9361C44.4954 15.4642 44.7173 15.7188 45.1242 15.7188C45.5403 15.7188 45.7622 15.4736 45.7714 14.9361C45.7807 14.7193 45.7807 14.5024 45.7807 14.2855C45.7807 9.82547 45.7807 5.37484 45.7807 0.914784C45.7807 0.660193 45.7807 0.415031 45.7807 0.122723C45.9379 0.0944352 46.0396 0.0661473 46.1413 0.0661473C47.2694 0.056718 48.3975 0.0755766 49.5256 0.0755766C49.803 0.0755766 49.9417 0.151011 49.9417 0.5659C49.9324 5.27112 49.9694 9.98577 49.9139 14.691C49.8769 17.9064 48.1571 19.962 45.5033 19.9997C44.6618 20.0091 43.7741 19.8205 42.9789 19.4811C41.5734 18.8776 40.8799 17.4255 40.695 15.6056C40.621 14.8324 40.6858 14.0404 40.6858 13.1729Z" fill="#FF0000"/>
<path d="M96.0151 9.22917V6.53854H97.3166C97.5062 6.53854 97.6739 6.575 97.8198 6.64792C97.968 6.72083 98.0823 6.82413 98.1625 6.95781C98.2451 7.09149 98.2864 7.25191 98.2864 7.43906C98.2864 7.62865 98.2439 7.79028 98.1588 7.92396C98.0737 8.05521 97.9559 8.15608 97.8052 8.22656C97.6569 8.29462 97.4855 8.32865 97.2911 8.32865H96.4161V7.8H97.1526C97.2619 7.8 97.3507 7.76962 97.4187 7.70885C97.4868 7.64809 97.5208 7.55816 97.5208 7.43906C97.5208 7.3151 97.4868 7.22517 97.4187 7.16927C97.3507 7.11094 97.2632 7.08177 97.1562 7.08177H96.7515V9.22917H96.0151ZM97.7651 7.99688L98.3593 9.22917H97.5536L97.0067 7.99688H97.7651ZM97.0833 10.8333C96.6798 10.8333 96.3019 10.758 95.9494 10.6073C95.597 10.4566 95.2871 10.2476 95.0198 9.98021C94.7524 9.71285 94.5434 9.40295 94.3927 9.05052C94.242 8.69809 94.1666 8.32014 94.1666 7.91667C94.1666 7.51319 94.242 7.13524 94.3927 6.78281C94.5434 6.43038 94.7524 6.12049 95.0198 5.85313C95.2871 5.58576 95.597 5.37674 95.9494 5.22604C96.3019 5.07535 96.6798 5 97.0833 5C97.4868 5 97.8647 5.07535 98.2171 5.22604C98.5696 5.37674 98.8795 5.58576 99.1468 5.85313C99.4142 6.12049 99.6232 6.43038 99.7739 6.78281C99.9246 7.13524 100 7.51319 100 7.91667C100 8.32014 99.9246 8.69809 99.7739 9.05052C99.6232 9.40295 99.4142 9.71285 99.1468 9.98021C98.8795 10.2476 98.5696 10.4566 98.2171 10.6073C97.8647 10.758 97.4868 10.8333 97.0833 10.8333ZM97.0833 10.0385C97.477 10.0385 97.8343 9.94375 98.1552 9.75417C98.476 9.56215 98.7312 9.30573 98.9208 8.9849C99.1128 8.66406 99.2088 8.30799 99.2088 7.91667C99.2088 7.52535 99.1128 7.16927 98.9208 6.84844C98.7312 6.5276 98.4748 6.2724 98.1515 6.08281C97.8307 5.8908 97.4746 5.79479 97.0833 5.79479C96.692 5.79479 96.3359 5.8908 96.0151 6.08281C95.6942 6.2724 95.4378 6.5276 95.2458 6.84844C95.0562 7.16927 94.9614 7.52535 94.9614 7.91667C94.9614 8.30799 95.0562 8.66406 95.2458 8.9849C95.4378 9.30573 95.6942 9.56215 96.0151 9.75417C96.3359 9.94375 96.692 10.0385 97.0833 10.0385Z" fill="#FF0000"/>
</svg>
